<?xml version="1.0" encoding="UTF-8"?>
<svg id="_圖層_2" data-name="圖層 2" xmlns="http://www.w3.org/2000/svg" viewBox="0 0 691.4 237.74">
  <defs>
    <style>
      .cls-1 {
        fill: #231815;
      }
    </style>
  </defs>
  <g id="_圖層_2-2" data-name="圖層 2">
    <g>
      <path class="cls-1" d="M59.7,163.58h-12.67l-7.63-12.98h20.3c1.23,0,2.27-1.04,2.27-2.27v-17.76l-36.96,5.95v-13.14l36.96-5.95v-35.82H18.99v10.55l36.33,5.52v12.74l-.04.31-.31.02-35.98-5.46v9.26c0,19.22-3.05,37.03-5.6,48.59l-.05.24H0l.09-.38c2.21-9.5,5.92-28.42,5.92-48.45v-45.91h68.94v79.69c0,8.41-6.84,15.25-15.25,15.25"/>
      <path class="cls-1" d="M77.62,60.43H3.26v-12.98h16.17l-5.1-22.59H3.26v-12.98h30.69V2.31h12.98v9.58h30.69v12.98h-11.07l-5.1,22.59h16.17v12.98ZM32.66,47.46h15.56l5.1-22.59h-25.77l5.11,22.59Z"/>
      <path class="cls-1" d="M145.62,163.45h-44.76c-8.4,0-15.25-6.84-15.25-15.25V55.69h58.23v-8.93h-58.23V2.31h12.98v9.58h36.47L154.02,0l6.58,8.4-15.36,16.29-.07.13-.2.04h-46.38v8.92h58.23v34.88h-58.23v10.65h58.54v13.09h-58.54v7.92h58.54v13.09h-58.54v7.95h58.54v13.09h-58.54v13.76c0,1.23,1.04,2.27,2.27,2.27h44.76c1.23,0,2.27-1.04,2.27-2.27v-6.69h12.98v6.69c0,8.41-6.84,15.25-15.25,15.25"/>
      <path class="cls-1" d="M492.68,38.59h25.77v-14.91l-21.81.08h-50.25V2.84h-16.07v20.92h-71.91v14.83h117.91c-2.07,9.87-11.22,45.97-37.88,69.39-21.06-18.51-31.22-45.08-35.58-60.22l-15.86,3.15c4.48,16.28,15.21,45.26,38.32,66.87-25.35,16.7-54.52,25.76-66.87,29.11v16.61c10.25-2.51,48.15-12.83,79.98-35.21,32.21,22.65,70.64,32.95,80.33,35.29v-16.59c-12.12-3.25-41.58-12.3-67.22-29.2,32.92-30.77,40.71-76.51,41.14-79.19"/>
      <path class="cls-1" d="M590.12,2.92h-14.63c-4.51,19.19-16.14,54.14-44.05,78.32l-.36.31v19.81l1.66-1.18c11.15-7.93,21.12-17.89,29.67-29.63v92.84h15.69V43.72c7.47-16.08,11.47-31,13.53-40.8h-1.51Z"/>
      <path class="cls-1" d="M675.71,125.35v20.26c0,1.49-1.38,2.02-2.67,2.02h-44.67c-1.44,0-2.66-1.22-2.66-2.66v-69.53l49.5-2.11,16.12-17.11-6.11-8.19-17.9,10.1-41.61,1.61V2.92h-15.69v142.04c0,10.12,8.23,18.36,18.36,18.36h44.67c10.12,0,18.36-8.23,18.36-18.36v-19.61h-15.69Z"/>
      <polygon class="cls-1" points="251.37 160.6 238.16 160.6 242.96 135.72 256.17 135.72 251.37 160.6"/>
      <polygon class="cls-1" points="298.59 160.6 285.37 160.6 280.57 135.72 293.79 135.72 298.59 160.6"/>
      <rect class="cls-1" x="261.93" y="135.72" width="12.98" height="24.88"/>
      <path class="cls-1" d="M340.1,76.69c-11.51-8.54-19.3-17.14-23.91-23.01h19.15v-12.98h-53.1c1.36-2.46,2.59-4.86,3.7-7.2h49.39v-12.98h-21.96l10.45-17.35h-14.97l-8.36,13.67,6.41,3.68h-15.63c2.7-7.75,3.98-13.91,4.55-17.37h-13.23c-.79,3.83-2.37,9.96-5.33,17.37h-11.95l6.41-3.68-8.36-13.67h-14.97l10.45,17.35h-21.75v12.98h34.06c-1.28,2.35-2.68,4.74-4.23,7.19h-29.83v12.99h20.32c-6.48,7.76-14.56,15.5-24.62,22.63V8.43h-47.54v120.27c0,15.28-3.89,28.07-6.21,34.34l-.15.42h13.75l.07-.21c2.52-7.82,5.52-20.17,5.52-34.55v-25.35h21.58v44.78c0,1.23-1.04,2.27-2.27,2.27h-14.32l7.46,12.98h6.87c8.41,0,15.24-6.84,15.24-15.25v-56.22c3.62-2.26,7.05-4.57,10.27-6.95v44.24h77.99v20.77c0,.19,0,.36-.01.52h-3.44l-4.69-14.73h-13.62l8.83,27.71h16.78c5.55,0,9.13-5.3,9.13-13.5v-33.22h-39.44v-6.05h31.14v-12.45h-31.14v-5.97h31.14v-10.33c4.37,3.63,9.07,7.1,13.99,10.3l.47.31v-15.79l-.12-.09ZM219.85,90.37h-21.58v-28.33h21.58v28.33ZM219.85,49.05h-21.58v-27.65h21.58v27.65ZM281.65,116.75h-25.57v-6.05h25.57v6.05ZM281.65,98.25h-25.57v-5.97h25.57v5.97ZM281.65,79.83h-25.57v-6.04h25.57v6.04ZM268.06,61.34c1.95-2.38,4.3-5.29,5.99-7.66h26.21c1.45,2.29,3.66,5.22,5.53,7.66h-37.73ZM294.62,79.83v-6.04h22.13c1.91,1.89,4.42,4.27,6.44,6.04h-28.57Z"/>
      <path class="cls-1" d="M45.6,209.91H4.64v-3.59h6.67v-7.74h4.31v7.74h7.86v-9.9h4.21v3.32h15.19v3.53h-15.19v3.05h17.91v3.59ZM41.29,233.37c0,.98-.31,1.82-.92,2.52-.61.7-1.49,1.12-2.65,1.24-1.15.12-2.52.18-4.09.18-.7,0-1.41-.01-2.11-.05l-1.74-3.89c3.16.05,5.16.03,6-.03.84-.07,1.26-.45,1.26-1.13v-4.97c-8.35,1.89-16.16,3.38-23.41,4.47l-.69-2.17c-.96,3.18-2.48,5.92-4.56,8.22l-3.51-2.54c3.02-3.12,4.54-6.98,4.54-11.59v-11.06h31.86v20.82ZM37.05,223.65v-7.49H13.64v2.86c6.61.05,13.23.33,19.86.85l-1.42,3.6c-5.5-.66-11.64-.94-18.44-.85v1.65c0,1.34-.11,2.58-.32,3.71,7.83-1.05,15.75-2.5,23.73-4.33Z"/>
      <path class="cls-1" d="M128.31,232.68l-1.17,4.08c-1.68.03-3.45.05-5.31.05-6.74,0-11.22-.16-13.46-.49-2.24-.33-4.38-1.06-6.41-2.2-2.04-1.14-3.95-2.94-5.74-5.42-1.68,3.16-3.76,6.15-6.23,8.96l-3.34-2.73c4.76-4.63,7.66-10.68,8.68-18.17l4.26.53c-.32,2.29-.83,4.53-1.53,6.71,2.15,3.91,4.83,6.41,8.02,7.49v-17.87h-12.58v-3.89h27.26v3.89h-10.42v6.09h14.45v3.89h-14.45v8.68c3.7.34,7.64.5,11.84.5,2.06,0,4.11-.04,6.14-.11ZM126.53,211.51h-4.21v-7.08h-30.12v7.08h-4.42v-10.97h17.23c-.55-1.19-1.24-2.4-2.06-3.62l4.17-.98c.95,1.22,1.82,2.76,2.63,4.6h16.79v10.97Z"/>
      <path class="cls-1" d="M205.9,237.31h-4.31v-2.38h-24.63v2.38h-4.28v-35.87h11.32c.88-1.4,1.66-3.18,2.34-5.31l4.56.75c-.49,1.7-1.18,3.22-2.06,4.56h17.07v35.87ZM201.6,210.98v-5.47h-24.63v5.47h24.63ZM201.6,220.7v-5.75h-24.63v5.75h24.63ZM201.6,230.89v-6.25h-24.63v6.25h24.63Z"/>
      <path class="cls-1" d="M291.94,224.32c-.05,2.35-.3,4.62-.76,6.79-.46,2.17-1.32,3.68-2.58,4.52-1.26.84-3.29,1.26-6.08,1.26-6.26,0-11.98-.03-17.17-.09-5.18-.06-8.1-.19-8.74-.39-.64-.2-1.29-.67-1.96-1.41-.67-.74-1-1.6-1-2.58v-20.25h30.17v-10.51h-32.23v-4.12h36.58v18.71h-30.1v15.39c0,.43.22.7.65.82.44.12,2.06.21,4.88.27,2.82.06,5.91.09,9.29.09,7.09,0,11.15-.07,12.2-.22,1.05-.15,1.72-1.15,2.03-3.01.31-1.86.46-4.12.46-6.78l4.35,1.49Z"/>
      <path class="cls-1" d="M443.78,209.91h-40.96v-3.59h6.67v-7.74h4.31v7.74h7.86v-9.9h4.21v3.32h15.19v3.53h-15.19v3.05h17.91v3.59ZM439.48,233.37c0,.98-.31,1.82-.92,2.52-.61.7-1.49,1.12-2.64,1.24-1.15.12-2.52.18-4.09.18-.7,0-1.4-.01-2.11-.05l-1.74-3.89c3.16.05,5.16.03,6-.03.84-.07,1.26-.45,1.26-1.13v-4.97c-8.35,1.89-16.16,3.38-23.41,4.47l-.69-2.17c-.96,3.18-2.48,5.92-4.56,8.22l-3.51-2.54c3.02-3.12,4.54-6.98,4.54-11.59v-11.06h31.86v20.82ZM435.24,223.65v-7.49h-23.41v2.86c6.61.05,13.23.33,19.86.85l-1.42,3.6c-5.5-.66-11.65-.94-18.44-.85v1.65c0,1.34-.11,2.58-.32,3.71,7.83-1.05,15.75-2.5,23.73-4.33Z"/>
      <path class="cls-1" d="M526.5,232.68l-1.17,4.08c-1.68.03-3.45.05-5.31.05-6.74,0-11.22-.16-13.46-.49-2.24-.33-4.38-1.06-6.41-2.2-2.04-1.14-3.95-2.94-5.74-5.42-1.68,3.16-3.76,6.15-6.23,8.96l-3.34-2.73c4.76-4.63,7.66-10.68,8.68-18.17l4.26.53c-.32,2.29-.83,4.53-1.53,6.71,2.15,3.91,4.83,6.41,8.02,7.49v-17.87h-12.58v-3.89h27.26v3.89h-10.42v6.09h14.45v3.89h-14.45v8.68c3.7.34,7.64.5,11.84.5,2.06,0,4.11-.04,6.14-.11ZM524.71,211.51h-4.21v-7.08h-30.12v7.08h-4.42v-10.97h17.23c-.55-1.19-1.24-2.4-2.06-3.62l4.17-.98c.95,1.22,1.82,2.76,2.63,4.6h16.79v10.97Z"/>
      <path class="cls-1" d="M608.21,223.15l-2.43,3.41c-4.9-4.09-10.35-7.86-16.33-11.29v21.99h-4.4v-23.5c-4.95,5.13-10.32,9.37-16.1,12.71l-2.43-3.55c10.6-6.11,17.9-13.24,21.9-21.4h-21.1v-4.12h39.91v4.12h-13.97c-.93,1.99-2.2,4.21-3.8,6.67v2.29c8.9,5.13,15.16,9.35,18.76,12.67Z"/>
      <path class="cls-1" d="M688.5,233.46c0,1.04-.3,1.89-.89,2.57-.59.67-1.52,1.07-2.76,1.19-1.24.12-2.66.18-4.25.18-1.05,0-2.22-.03-3.5-.09l-1.42-4.17c.99.06,2.06.09,3.21.09,2.73,0,4.32-.09,4.76-.27.44-.18.66-.51.66-.98v-30.54h-29.07v35.92h-4.15v-39.95h37.41v36.06ZM681.59,209.5h-23.87v-3.99h23.87v3.99ZM679.16,228.69h-18.94v-15.03h18.94v15.03ZM675.13,224.75v-7.15h-10.7v7.15h10.7Z"/>
      <polygon class="cls-1" points="335 201.72 335 201.72 342.86 218.32 335 234.92 335 234.92 365.93 218.32 335 201.72"/>
    </g>
  </g>
</svg>